<svg width="1926" height="819" viewBox="0 0 1926 819" fill="none" xmlns="http://www.w3.org/2000/svg">
<g clip-path="url(#clip0_1427_2221)">
<path d="M104.867 216.674C104.867 230.044 110.332 240.983 120.655 248.883C130.977 256.783 144.944 264.076 161.339 269.545C178.341 275.622 195.95 281.699 214.774 288.384C233.598 295.069 251.208 303.577 268.21 313.3C285.212 323.631 298.571 337.001 308.894 354.625C319.217 371.641 324.682 394.126 324.682 421.473C324.682 449.428 319.824 473.129 309.501 493.183C299.178 513.238 282.783 528.431 259.102 538.762C236.027 549.093 204.451 554.562 164.982 554.562C127.334 554.562 96.9729 548.485 73.2911 536.331C49.6094 524.177 31.9999 507.768 20.4627 488.322C8.9254 468.267 2.24594 447.605 0.424273 425.12C-0.182951 421.473 1.0315 418.435 3.46039 415.396C5.88929 412.358 9.53262 411.142 13.176 411.142H90.2934C98.1873 411.142 102.438 414.788 103.045 422.689C103.652 430.589 106.081 439.097 109.725 448.82C113.368 458.544 119.44 467.052 127.941 473.737C136.442 481.029 147.98 484.675 163.16 484.675C180.77 484.675 193.521 481.637 201.415 476.167C209.309 470.09 214.774 462.19 217.203 452.467C219.632 442.743 220.847 432.412 220.847 421.473C220.847 407.496 215.382 396.557 205.059 388.049C194.129 379.541 180.77 372.856 163.768 366.779C146.765 360.702 129.156 354.625 110.332 347.94C91.5079 341.255 73.8984 332.747 57.5033 323.024C41.1083 312.693 27.1421 299.323 16.8193 281.699C5.88929 264.683 1.03149 242.806 1.03149 215.459C1.03149 187.504 5.88928 163.803 16.2121 143.748C26.5349 123.694 42.9299 108.501 66.0044 98.17C89.079 87.8388 120.655 82.3694 160.124 82.3694C197.165 82.3694 226.919 88.4465 249.993 100.601C272.461 112.755 289.463 129.163 300.393 148.61C311.323 168.665 317.395 189.327 319.217 211.812C319.217 215.459 318.002 218.497 315.573 221.536C313.145 224.574 310.108 225.79 306.465 225.79H229.348C221.454 225.79 217.203 221.536 215.989 213.635C215.382 205.735 214.167 197.227 211.131 187.504C208.095 177.78 203.237 169.272 195.343 162.588C188.056 155.295 176.519 151.649 161.946 151.649C144.336 151.649 131.585 154.687 123.084 160.764C114.582 166.842 109.725 174.742 107.296 184.465C106.081 194.796 104.867 205.735 104.867 216.674Z" fill="white"/>
<path d="M550.465 90.2698C590.542 90.2698 622.118 96.347 645.192 107.894C668.267 119.44 685.269 135.848 694.985 157.118C705.307 178.388 710.165 203.912 710.165 233.69C710.165 264.076 705.307 288.992 694.985 309.654C684.662 330.316 668.267 345.509 645.192 356.448C622.118 366.779 590.542 372.249 550.465 372.249H502.495C498.851 372.249 495.815 373.464 493.386 375.895C490.957 378.326 489.743 381.364 490.35 385.011C490.35 423.296 490.35 455.505 490.957 480.421C491.565 505.945 492.172 524.177 492.779 535.723C492.779 539.37 491.565 542.408 489.136 544.839C486.707 547.27 483.671 548.485 479.42 548.485H403.517C399.267 548.485 396.23 547.27 393.802 544.839C391.373 542.408 390.158 539.37 390.158 535.723C390.765 521.138 391.373 495.614 391.98 459.151C392.587 422.689 393.194 375.895 393.194 319.378C393.194 262.253 392.587 215.459 391.98 178.996C391.373 142.533 390.765 117.617 390.158 103.032C390.158 99.3855 391.373 96.3469 393.802 93.9161C396.23 91.4852 399.267 90.2698 403.517 90.2698H550.465ZM551.68 302.362C569.289 302.362 582.648 298.715 590.542 291.423C598.436 284.13 603.294 275.014 604.508 264.683C605.723 253.745 606.937 243.413 606.937 233.69C606.937 223.967 606.33 213.636 604.508 202.089C603.294 190.542 598.436 180.819 590.542 172.311C582.648 163.803 569.896 160.157 551.68 160.157H503.709C500.066 160.157 497.03 161.372 494.601 163.803C492.172 166.234 490.957 169.272 490.957 172.311C490.957 188.112 490.957 205.735 490.35 225.182C489.743 244.629 489.743 265.899 489.743 289.6C489.743 293.246 490.957 296.892 493.386 299.323C495.815 301.754 498.851 302.969 502.495 302.969H551.68V302.362Z" fill="white"/>
<path d="M1056.39 548.485C1049.1 548.485 1044.85 544.839 1043.64 538.154C1043.03 532.077 1041.21 523.569 1038.78 512.023C1036.35 500.476 1033.92 486.499 1030.89 470.09C1029.67 463.406 1025.42 459.759 1018.13 459.759H899.726C893.047 459.759 888.189 463.406 886.975 470.09C883.938 486.499 881.509 500.476 879.688 512.023C877.866 523.569 876.044 532.077 874.83 538.154C873.616 545.447 869.972 548.485 862.078 548.485H785.568C781.318 548.485 777.674 546.662 775.245 543.624C772.816 540.585 772.209 536.939 773.424 532.685C777.067 517.492 782.532 491.968 791.033 455.505C799.534 419.65 809.25 374.072 821.394 318.77C834.146 259.822 843.862 211.812 851.148 175.35C858.435 138.279 862.686 113.363 865.114 99.9932C866.329 93.3084 870.579 89.6621 877.259 89.6621H1041.82C1049.1 89.6621 1053.35 93.3084 1055.18 99.9932C1057.6 113.363 1061.86 138.279 1068.53 175.35C1075.82 212.42 1084.93 260.429 1097.68 318.77C1109.22 373.464 1119.54 419.043 1128.04 455.505C1136.54 491.36 1142.62 517.492 1146.26 532.685C1146.87 536.331 1146.26 539.977 1143.83 543.624C1141.4 546.662 1137.76 548.485 1134.11 548.485H1056.39ZM919.157 389.872H999.311C1003.56 389.872 1006.6 388.657 1009.03 385.011C1011.46 381.972 1012.67 378.326 1011.46 374.679C1009.63 366.171 1007.81 357.056 1005.99 347.332C1004.17 338.217 1001.74 328.493 999.918 318.77C993.239 287.777 987.166 259.822 981.701 234.905C976.236 209.989 971.379 188.112 967.128 169.88C966.521 165.626 963.485 163.195 958.627 163.195C953.769 163.195 951.34 165.626 950.126 169.88C945.875 188.112 941.625 209.989 935.552 234.905C930.087 259.822 924.015 287.777 917.336 318.77C914.907 328.493 913.085 337.609 911.263 347.332C909.442 356.448 907.62 365.564 905.798 374.679C904.584 378.933 905.798 381.972 908.227 385.011C911.263 388.049 914.3 389.872 919.157 389.872Z" fill="white"/>
<path d="M1511.93 548.485H1428.74C1425.1 548.485 1422.06 547.27 1419.63 544.839C1417.2 542.408 1415.99 539.37 1415.99 535.723V434.843C1415.99 424.512 1414.77 414.789 1411.13 405.673C1408.09 395.949 1402.63 388.049 1394.73 381.972C1386.84 375.895 1375.3 372.249 1361.34 372.249H1320.05C1316.4 372.249 1313.37 373.464 1310.94 375.895C1308.51 378.326 1307.29 381.364 1307.9 385.011C1307.9 423.296 1307.9 455.505 1308.51 480.421C1309.12 505.945 1309.72 524.177 1310.33 535.723C1310.33 539.37 1309.12 542.408 1306.69 544.839C1304.26 547.27 1301.22 548.485 1296.97 548.485H1221.07C1216.82 548.485 1213.78 547.27 1211.35 544.839C1208.92 542.408 1207.71 539.37 1207.71 535.723C1208.32 521.138 1208.92 495.614 1209.53 459.151C1210.14 422.689 1210.75 375.895 1210.75 319.378C1210.75 262.253 1210.14 215.459 1209.53 178.996C1208.92 142.533 1208.32 117.617 1207.71 103.032C1207.71 99.3855 1208.92 96.3469 1211.35 93.9161C1213.78 91.4852 1216.82 90.2698 1221.07 90.2698H1363.16C1384.41 90.2698 1405.06 92.0929 1423.88 96.3469C1443.31 99.9932 1460.31 107.286 1474.89 117.009C1489.46 127.34 1501.61 141.318 1510.11 158.941C1518.61 176.565 1522.86 199.658 1522.86 227.613C1522.86 253.137 1516.79 274.407 1505.25 291.423C1493.71 308.439 1478.53 321.201 1460.31 330.924C1458.49 331.532 1457.89 333.355 1457.89 335.786C1457.89 338.217 1459.1 339.432 1460.92 341.255C1477.32 349.155 1491.28 360.702 1502.21 375.895C1513.14 391.088 1518.61 410.534 1518.61 435.451C1518.61 459.152 1519.21 479.206 1520.43 496.222C1521.64 513.238 1522.86 526 1524.68 535.116C1525.29 539.37 1524.07 542.408 1521.64 545.447C1518.61 546.662 1515.57 548.485 1511.93 548.485ZM1364.37 159.549H1321.26C1317.62 159.549 1314.58 160.764 1312.15 163.195C1309.72 165.626 1308.51 168.665 1308.51 171.703C1308.51 187.504 1308.51 205.128 1307.9 224.574C1307.29 244.021 1307.29 265.291 1307.29 288.992C1307.29 292.638 1308.51 296.284 1310.94 298.715C1313.37 301.146 1316.4 302.362 1320.05 302.362H1364.37C1378.95 302.362 1389.88 298.108 1397.77 290.207C1405.66 281.699 1411.13 271.976 1414.77 260.429C1417.81 248.883 1419.63 237.944 1419.63 228.221C1419.63 210.597 1416.59 197.227 1409.91 187.504C1403.84 177.78 1395.95 170.488 1387.45 166.234C1378.95 161.372 1371.66 159.549 1364.37 159.549Z" fill="white"/>
<path d="M1818.52 548.485C1813.05 548.485 1809.41 546.054 1807.59 541.193L1699.5 334.57C1698.29 332.139 1695.86 330.924 1693.43 331.532C1690.39 332.139 1689.18 333.963 1689.18 337.001C1689.18 389.265 1689.79 431.804 1690.39 465.229C1691 498.653 1691.61 521.746 1692.21 535.723C1692.21 539.37 1691 542.408 1688.57 544.839C1686.14 547.27 1683.11 548.485 1678.86 548.485H1603.56C1599.31 548.485 1596.27 547.27 1593.84 544.839C1591.42 542.408 1590.2 539.37 1590.2 535.723C1590.81 521.138 1591.42 495.614 1592.02 459.151C1592.63 422.689 1593.24 375.895 1593.24 319.378C1593.24 262.253 1592.63 215.459 1592.02 178.996C1591.42 142.533 1590.81 117.617 1590.2 103.032C1590.2 99.3855 1591.42 96.3469 1593.84 93.9161C1596.27 91.4852 1599.31 90.2698 1603.56 90.2698H1679.46C1683.71 90.2698 1686.75 91.4852 1689.18 93.9161C1691.61 96.3469 1692.82 99.3855 1692.82 103.032C1692.21 116.401 1691.61 137.671 1691 168.057C1690.39 198.443 1689.79 236.729 1689.79 283.522C1689.79 285.953 1691 287.776 1694.04 288.992C1697.07 289.6 1698.89 288.992 1700.11 286.561L1799.09 97.5623C1801.52 92.7006 1805.16 90.2698 1810.02 90.2698H1902.31C1907.78 90.2698 1911.42 92.7007 1913.85 96.9547C1916.28 101.816 1915.67 106.07 1912.64 110.324C1901.1 125.517 1885.31 149.218 1864.67 180.819C1844.02 212.42 1821.55 252.529 1796.66 299.931C1792.41 307.223 1792.41 313.908 1796.05 319.985C1823.38 372.249 1848.27 416.004 1870.74 451.251C1893.21 485.891 1910.21 511.415 1921.75 527.823C1924.78 532.077 1924.78 536.331 1922.35 541.193C1919.92 546.054 1916.28 547.878 1910.82 547.878H1818.52V548.485Z" fill="white"/>
<mask id="mask0_1427_2221" style="mask-type:luminance" maskUnits="userSpaceOnUse" x="727" y="79" width="471" height="454">
<path d="M1197.63 79.6108H727.027V532.965H1197.63V79.6108Z" fill="white"/>
</mask>
<g mask="url(#mask0_1427_2221)">
<path d="M961.416 79.6108L1016.67 252.809H1195.2L1050.68 359.766L1105.94 532.965L961.416 426.007L816.289 532.965L871.547 359.766L727.027 252.809H905.551L961.416 79.6108Z" fill="#FF5817"/>
</g>
<mask id="mask1_1427_2221" style="mask-type:luminance" maskUnits="userSpaceOnUse" x="727" y="79" width="468" height="454">
<path d="M1194.59 79.6108H727.027V532.357H1194.59V79.6108Z" fill="white"/>
</mask>
<g mask="url(#mask1_1427_2221)">
<mask id="mask2_1427_2221" style="mask-type:luminance" maskUnits="userSpaceOnUse" x="727" y="79" width="469" height="454">
<path d="M961.416 79.6108L1016.67 252.809H1195.2L1050.68 359.766L1105.94 532.965L961.416 426.007L816.289 532.965L871.547 359.766L727.027 252.809H905.551L961.416 79.6108Z" fill="white"/>
</mask>
<g mask="url(#mask2_1427_2221)">
<path d="M1152.1 596.774L961.427 455.785L770.759 596.774L843.626 368.882L653.564 228.5H888.56L961.427 0.000244141L1034.29 228.5H1269.29L1079.23 368.882L1152.1 596.774ZM800.513 277.117L900.097 350.651L862.449 468.547L961.427 395.621L1060.4 468.547L1022.76 350.651L1122.34 277.117H999.682L962.034 159.829L923.779 277.117H800.513Z" fill="white"/>
</g>
</g>
<path d="M146.824 668.449C146.824 672.703 146.824 676.349 146.216 680.603C146.216 684.249 146.216 688.503 145.609 693.365C145.609 698.227 145.002 703.696 145.002 710.381C145.002 717.066 145.002 723.143 145.609 727.397C145.609 732.259 146.216 735.905 146.216 740.159C146.216 743.805 146.824 748.059 146.824 752.313C146.824 765.075 144.395 776.622 140.144 786.345C135.286 796.068 128 803.969 117.07 809.438C106.14 814.907 92.1734 817.946 73.9567 817.946C55.74 817.946 41.1666 814.908 30.2366 808.223C19.3066 801.538 12.0199 793.638 7.7693 783.306C3.51873 772.975 1.08984 762.644 1.08984 751.705C1.08984 747.451 1.08984 743.197 1.08984 739.551C1.08984 735.905 1.69706 731.651 1.69706 726.789C2.30428 721.927 2.30427 716.458 2.30427 709.773C2.30427 703.088 2.30428 697.011 1.69706 692.757C1.08983 687.895 1.08984 683.641 1.08984 679.995C1.08984 676.349 1.08984 672.095 1.08984 667.841C1.08984 655.079 3.51872 643.532 8.37651 633.809C13.2343 624.086 20.521 616.185 31.451 610.108C41.7738 604.031 56.3472 601.6 74.5639 601.6C92.7806 601.6 107.354 604.639 117.677 611.324C128.607 617.401 135.894 625.909 140.144 636.24C144.395 647.179 146.824 657.51 146.824 668.449ZM73.3495 786.345C81.2434 786.345 86.7084 784.522 90.959 780.876C94.6023 777.229 97.0312 772.975 98.2457 767.506C99.4601 762.036 100.067 757.175 100.067 751.705V668.449C100.067 666.626 100.067 664.195 99.4601 660.548C98.8529 656.902 98.2456 652.648 96.424 649.002C95.2095 644.748 92.7807 641.709 89.1373 638.671C85.494 635.632 81.2434 634.417 74.5639 634.417C66.67 634.417 60.5978 636.24 56.9544 639.886C53.3111 643.532 50.8822 647.786 49.6678 653.256C48.4533 658.725 48.4533 663.587 48.4533 668.449V751.705C48.4533 753.528 48.4533 755.959 49.0605 759.606C49.6677 763.252 50.275 766.898 51.4894 771.152C53.3111 775.406 55.74 778.445 58.7761 781.483C62.4195 784.522 67.2772 786.345 73.3495 786.345Z" fill="#FF5817"/>
<path d="M271.435 777.229C271.435 779.052 272.042 780.268 272.649 781.483C273.863 782.698 275.078 783.306 276.9 783.306H335.193C337.015 783.306 338.229 783.914 339.444 785.129C340.658 786.345 341.265 787.56 341.265 789.383V809.438C341.265 811.261 340.658 812.476 339.444 813.692C338.229 814.907 337.015 815.515 335.193 815.515H232.572C230.751 815.515 229.536 814.907 228.322 813.692C227.107 812.476 226.5 811.261 226.5 809.438V611.323C226.5 609.5 227.107 608.285 228.322 607.069C229.536 605.854 230.751 605.246 232.572 605.246H267.791C269.613 605.246 270.827 605.854 272.042 607.069C273.256 608.285 273.863 609.5 273.863 611.323C273.863 616.793 273.863 625.301 273.256 636.847C273.256 648.394 272.649 661.763 272.649 676.956C272.649 692.149 272.042 708.557 272.042 726.181C271.435 743.197 271.435 760.821 271.435 777.229Z" fill="#FF5817"/>
<path d="M544.249 669.664C538.176 683.033 533.319 694.58 529.675 704.303C526.032 713.419 522.996 720.712 521.174 725.573C519.96 728.612 519.352 731.651 519.352 734.689C519.352 738.943 518.745 743.197 518.745 748.666C518.745 754.136 518.745 760.213 518.745 767.506C518.745 777.837 518.745 786.345 519.352 793.03C519.96 799.714 519.96 805.184 519.96 808.83C519.96 810.653 519.96 811.869 518.745 813.084C517.531 814.299 515.709 814.907 514.495 814.907H480.49C478.668 814.907 477.454 814.299 476.24 813.084C475.025 811.869 474.418 810.653 475.025 808.83C475.025 805.184 475.632 799.714 475.632 793.03C476.24 786.345 476.24 777.837 476.24 767.506C476.24 760.213 476.24 754.136 475.632 748.666C475.632 743.197 475.632 738.335 475.025 734.689C475.025 731.651 474.418 728.612 473.203 725.573C471.382 720.712 468.346 713.419 464.702 704.303C461.059 695.188 456.201 683.641 450.129 669.664C444.057 656.294 439.199 644.748 434.341 635.632C430.091 626.516 426.447 619.224 424.018 613.754C422.804 611.931 422.804 610.108 424.625 608.285C425.84 606.462 427.662 605.246 429.483 605.246H462.881C465.917 605.246 467.738 606.462 468.346 609.5C469.56 613.754 471.989 621.047 475.025 630.77C478.668 641.101 482.919 653.863 488.384 669.056C490.813 675.741 493.242 681.818 495.063 687.895C495.671 689.111 496.278 689.718 497.492 689.718C498.707 689.718 499.314 689.111 499.921 687.895C502.35 681.818 504.779 675.741 507.208 669.056C512.673 653.256 516.924 640.494 520.567 630.77C524.21 620.439 526.032 613.754 527.246 609.5C528.461 606.462 530.282 605.246 532.711 605.246H566.109C567.93 605.246 569.752 606.462 570.966 608.285C572.181 610.108 572.181 611.931 571.574 613.754C569.145 618.616 565.501 625.908 561.251 635.632C555.786 644.748 550.321 656.294 544.249 669.664Z" fill="#FF5817"/>
<path d="M859.296 605.246C861.117 605.246 862.332 605.854 863.546 607.069C864.761 608.285 865.368 609.5 865.368 611.323C865.368 618.008 864.761 629.555 864.153 646.571C863.546 662.979 863.546 684.249 863.546 710.381C863.546 736.512 863.546 757.782 864.153 774.19C864.761 790.599 864.761 802.145 865.368 808.83C865.368 810.653 864.761 811.869 863.546 813.084C862.332 814.907 861.117 815.515 859.296 815.515H824.077C822.255 815.515 821.04 814.907 819.826 813.692C818.612 812.476 818.004 811.261 818.612 809.438C818.612 802.753 819.219 791.206 819.219 774.798C819.826 757.782 819.826 736.512 819.826 710.988C819.826 698.226 819.826 686.68 819.826 676.956C819.826 666.625 819.826 657.51 819.219 649.002C819.219 647.178 818.612 646.571 816.79 646.571C815.575 646.571 814.361 647.178 813.754 649.002C812.539 656.902 810.718 666.625 808.896 676.956C807.074 687.287 805.253 698.834 803.431 711.596C799.18 738.335 795.537 760.213 793.108 776.621C790.679 793.637 789.465 805.184 788.858 811.261C788.25 814.907 786.429 816.123 782.785 816.123H732.993C729.35 816.123 727.528 814.3 726.921 811.261C726.314 805.184 724.492 793.637 722.063 776.621C719.634 759.605 716.598 737.728 711.74 711.596C709.918 698.834 708.097 687.287 706.275 676.956C704.453 666.625 702.632 656.902 701.417 649.002C701.417 647.178 700.203 646.571 698.988 646.571C697.774 646.571 696.56 647.786 696.56 649.002C696.56 656.902 695.952 666.625 695.952 676.956C695.952 687.287 695.952 698.834 695.952 710.988C695.952 737.12 695.952 758.39 696.56 774.798C697.167 791.206 697.167 802.753 697.774 809.438C697.774 811.261 697.167 812.476 695.952 813.692C694.738 814.907 693.523 815.515 691.702 815.515H657.09C655.268 815.515 654.054 814.907 652.839 813.692C651.625 812.476 651.625 811.261 651.625 809.438C651.625 802.753 652.232 791.206 652.232 774.798C652.839 757.782 652.839 736.512 652.839 710.988C652.839 684.857 652.839 663.587 652.232 647.178C651.625 630.77 651.625 618.616 651.625 611.931C651.625 610.108 652.232 608.893 652.839 607.677C654.054 606.462 655.268 605.854 657.09 605.854H725.099C728.742 605.854 730.564 607.677 730.564 610.716C731.171 616.793 732.993 628.339 735.422 645.355C737.851 662.371 740.887 683.641 745.745 710.381C747.566 722.535 749.388 733.474 751.21 743.805C753.031 754.136 754.246 763.252 756.067 771.152C756.067 772.367 757.282 772.975 758.496 772.975C759.711 772.975 760.925 772.367 760.925 771.152C762.747 763.252 763.961 754.136 765.783 743.805C767.605 733.474 769.426 722.535 771.248 710.381C775.499 683.641 778.535 661.764 780.964 645.355C783.393 628.339 784.607 616.793 785.214 610.716C785.821 607.069 787.643 605.854 791.286 605.854H859.296V605.246Z" fill="#FF5817"/>
<path d="M1018.66 605.246C1036.88 605.246 1051.45 607.677 1062.38 613.146C1072.7 618.616 1080.6 625.908 1084.85 635.632C1089.71 645.355 1091.53 656.902 1091.53 670.879C1091.53 684.857 1089.1 696.403 1084.85 705.519C1079.99 714.635 1072.7 721.927 1062.38 726.789C1052.06 731.651 1037.49 734.081 1018.66 734.081H996.802C994.98 734.081 993.766 734.689 992.551 735.905C991.337 737.12 990.73 738.335 991.337 740.159C991.337 757.782 991.337 772.367 991.944 783.914C992.551 795.46 992.551 803.968 992.551 808.83C992.551 810.653 991.944 811.869 990.73 813.084C989.515 814.299 988.301 814.907 986.479 814.907H951.867C950.046 814.907 948.831 814.299 947.617 813.084C946.402 811.869 946.402 810.653 946.402 808.83C946.402 802.145 947.01 790.599 947.01 774.19C947.617 757.174 947.617 735.904 947.617 710.381C947.617 684.249 947.617 662.979 947.01 646.571C946.402 630.162 946.402 618.008 946.402 611.323C946.402 609.5 947.01 608.285 947.617 607.069C948.831 605.854 950.046 605.246 951.867 605.246H1018.66ZM1019.27 702.48C1027.77 702.48 1033.24 700.657 1036.88 697.619C1040.52 693.972 1042.34 690.326 1042.95 685.464C1043.56 680.603 1044.17 675.741 1044.17 671.487C1044.17 667.233 1043.56 662.371 1042.95 656.902C1042.34 651.432 1039.91 647.178 1036.88 642.924C1033.24 639.278 1027.16 637.455 1019.27 637.455H997.409C995.587 637.455 994.373 638.063 993.159 639.278C991.944 640.494 991.337 641.709 991.337 643.532C991.337 650.825 991.337 658.725 990.73 667.841C990.73 676.956 990.122 686.68 990.122 697.011C990.122 698.834 990.73 700.049 991.944 701.265C993.159 702.48 994.373 703.088 996.195 703.088H1019.27V702.48Z" fill="#FF5817"/>
<path d="M1218.98 809.438C1218.98 811.262 1218.38 812.477 1217.16 813.692C1215.95 814.908 1214.73 815.516 1212.91 815.516H1178.3C1176.48 815.516 1175.26 814.908 1174.05 813.692C1172.84 812.477 1172.84 811.262 1172.84 809.438C1172.84 802.754 1173.44 791.207 1173.44 774.799C1174.05 757.783 1174.05 736.513 1174.05 710.989C1174.05 684.857 1174.05 663.587 1173.44 647.179C1172.84 630.771 1172.84 618.617 1172.84 611.932C1172.84 610.109 1173.44 608.893 1174.05 607.678C1175.26 606.462 1176.48 605.855 1178.3 605.855H1212.91C1214.73 605.855 1215.95 606.462 1217.16 607.678C1218.38 608.893 1218.98 610.109 1218.98 611.932C1218.98 618.617 1218.38 630.163 1217.77 647.179C1217.16 663.587 1217.16 684.857 1217.16 710.989C1217.16 737.121 1217.16 758.391 1217.77 774.799C1218.38 791.207 1218.38 802.754 1218.98 809.438Z" fill="#FF5817"/>
<path d="M1429.05 815.515C1425.41 815.515 1423.59 813.692 1422.98 810.653C1422.37 807.615 1421.77 803.968 1420.55 798.499C1419.34 793.029 1418.12 786.952 1416.91 779.052C1416.3 776.014 1414.48 774.19 1411.44 774.19H1357.4C1354.36 774.19 1351.94 776.014 1351.33 779.052C1350.11 786.952 1348.9 793.029 1347.69 798.499C1346.47 803.361 1345.86 807.615 1345.26 810.653C1344.65 813.692 1342.83 815.515 1339.79 815.515H1304.57C1302.75 815.515 1300.93 814.907 1299.71 813.084C1298.5 811.261 1297.89 810.045 1298.5 808.222C1300.32 800.93 1302.75 789.383 1306.39 772.975C1310.04 756.567 1314.89 735.904 1320.36 710.381C1326.43 683.641 1330.68 661.764 1333.72 644.748C1336.76 627.732 1339.18 616.185 1339.79 610.108C1340.4 607.069 1342.22 605.246 1345.26 605.246H1422.37C1426.02 605.246 1427.84 607.069 1428.45 610.108C1429.66 616.185 1431.48 627.732 1434.52 644.748C1437.55 661.764 1442.41 683.641 1447.88 710.381C1453.34 735.904 1458.2 756.567 1461.84 772.975C1465.49 789.383 1468.52 800.93 1470.34 808.222C1470.95 810.045 1470.34 811.869 1469.13 813.084C1467.31 814.299 1466.09 815.515 1464.27 815.515H1429.05ZM1366.51 742.589H1402.94C1404.76 742.589 1406.59 741.982 1407.19 740.766C1408.41 739.551 1409.01 737.728 1408.41 735.904C1407.19 731.65 1406.59 728.004 1405.98 723.75C1404.76 719.496 1404.16 715.242 1402.94 710.988C1399.91 697.011 1396.87 684.249 1395.05 672.702C1392.62 661.156 1390.19 650.825 1388.37 642.924C1387.76 641.101 1386.55 639.886 1384.73 639.886C1382.3 639.886 1381.08 641.101 1380.48 642.924C1378.65 651.432 1376.22 661.156 1373.8 672.702C1371.37 684.249 1368.33 697.011 1365.29 710.988C1364.08 715.242 1363.47 719.496 1362.26 723.75C1361.04 728.004 1360.44 732.258 1359.83 735.904C1359.22 737.728 1359.83 739.551 1361.04 740.766C1362.87 741.982 1364.08 742.589 1366.51 742.589Z" fill="#FF5817"/>
<path d="M1696.28 670.88C1696.28 676.957 1696.28 682.426 1695.68 687.896C1695.07 693.365 1695.07 700.658 1695.07 710.381C1695.07 717.066 1695.07 723.143 1695.68 727.397C1696.28 732.259 1696.28 735.905 1696.28 740.159C1696.28 743.805 1696.89 748.059 1696.89 752.313C1696.89 765.075 1694.46 776.014 1689.61 785.738C1684.75 794.853 1677.46 802.146 1666.53 807.615C1655.6 812.477 1641.03 815.516 1623.42 815.516H1556.02C1554.19 815.516 1552.98 814.908 1551.77 813.692C1550.55 812.477 1550.55 811.262 1550.55 809.438C1550.55 802.754 1551.16 791.207 1551.16 774.799C1551.77 757.783 1551.77 736.513 1551.77 710.989C1551.77 684.857 1551.77 663.587 1551.16 647.179C1550.55 630.771 1550.55 618.617 1550.55 611.932C1550.55 610.109 1551.16 608.893 1551.77 607.678C1552.98 606.462 1554.19 605.855 1556.02 605.855H1622.81C1641.03 605.855 1654.99 608.893 1665.92 614.97C1676.25 621.047 1684.14 628.948 1688.39 638.671C1693.25 648.395 1695.68 658.726 1695.68 669.057C1696.28 669.664 1696.28 670.272 1696.28 670.88ZM1622.2 783.307C1630.1 783.307 1636.17 781.484 1639.81 778.445C1643.46 775.407 1645.88 771.153 1647.1 766.899C1648.31 762.645 1648.31 757.175 1648.31 752.313V670.88C1648.31 669.057 1648.31 666.626 1647.71 662.98C1647.71 659.333 1646.49 655.079 1645.28 651.433C1644.06 647.179 1641.03 644.141 1637.99 641.102C1634.35 638.063 1629.49 636.848 1623.42 636.848H1602.16C1600.34 636.848 1599.13 637.456 1597.91 638.671C1596.7 639.887 1596.09 641.102 1596.09 642.925C1596.09 651.433 1595.49 661.157 1595.49 672.703C1595.49 683.642 1595.49 696.404 1595.49 710.381C1595.49 724.359 1595.49 736.513 1595.49 748.059C1595.49 759.606 1595.49 769.329 1596.09 777.837C1596.09 779.661 1596.7 780.876 1597.91 782.091C1599.13 783.307 1600.34 783.915 1602.16 783.915H1622.2V783.307Z" fill="#FF5817"/>
<path d="M1824.16 662.979C1824.16 669.056 1826.59 673.918 1831.45 678.172C1836.31 681.818 1842.38 684.857 1850.27 687.895C1858.17 690.326 1866.06 693.365 1874.56 696.403C1883.06 699.442 1891.56 703.088 1898.85 707.95C1906.74 712.812 1912.82 718.889 1917.67 726.789C1922.53 734.689 1924.96 745.02 1924.96 757.175C1924.96 769.937 1922.53 780.876 1917.67 789.991C1912.82 799.107 1905.53 805.792 1894.6 810.653C1884.28 815.515 1869.7 817.946 1851.49 817.946C1834.48 817.946 1820.52 814.907 1809.59 809.438C1798.66 803.969 1790.76 796.676 1785.3 787.56C1779.83 778.445 1776.8 768.721 1776.19 758.39C1776.19 756.567 1776.19 755.352 1777.41 754.136C1778.62 752.921 1779.83 752.313 1781.66 752.313H1816.88C1820.52 752.313 1822.34 754.136 1822.34 757.782C1822.95 761.429 1823.55 765.683 1825.38 769.937C1827.2 774.191 1829.63 777.837 1833.88 781.483C1837.52 784.522 1842.99 786.345 1849.67 786.345C1857.56 786.345 1863.63 785.13 1867.27 782.091C1870.92 779.66 1873.35 776.014 1874.56 771.152C1875.78 766.29 1876.38 762.036 1876.38 756.567C1876.38 750.49 1873.95 745.021 1869.1 741.374C1864.24 737.728 1858.17 734.082 1850.27 731.651C1842.38 728.612 1834.48 726.181 1825.98 723.143C1817.48 720.104 1808.98 716.458 1801.69 711.596C1793.8 706.735 1787.73 700.657 1782.87 692.757C1778.01 684.857 1775.58 674.526 1775.58 662.372C1775.58 649.61 1778.01 638.671 1782.87 629.555C1787.73 620.439 1795.02 613.147 1805.95 608.893C1816.27 604.031 1830.84 601.6 1849.06 601.6C1866.06 601.6 1879.42 604.639 1889.74 610.108C1900.06 615.578 1907.96 622.87 1912.82 631.986C1917.67 641.102 1920.71 650.825 1921.32 660.548C1921.32 662.372 1920.71 663.587 1919.5 664.802C1918.28 666.018 1917.07 666.626 1915.25 666.626H1881.24C1877.6 666.626 1875.78 664.802 1875.17 661.156C1875.17 657.51 1873.95 653.864 1872.74 649.002C1871.53 644.748 1869.1 640.494 1865.45 637.455C1861.81 633.809 1856.95 632.594 1850.27 632.594C1842.38 632.594 1836.31 633.809 1832.66 636.848C1829.02 639.278 1826.59 642.925 1825.38 647.786C1824.16 653.864 1824.16 658.118 1824.16 662.979Z" fill="#FF5817"/>
</g>
<defs>
<clipPath id="clip0_1427_2221">
<rect width="1924.46" height="818.26" fill="white" transform="translate(0.769531)"/>
</clipPath>
</defs>
</svg>
